{"title":"My Pure Joy (2011)","uid":8098853,"size":1707911213,"categoryP":"video","categoryS":"movies","magnet":"?xt=urn:btih:c293c46bfe7f371a5613892031668e35a4fda523&amp;dn=My+Pure+Joy+%282011%29&amp;tr=udp%3A%2F%2Ftracker.openbittorrent.com%3A80&amp;tr=udp%3A%2F%2Fopen.demonii.com%3A1337&amp;tr=udp%3A%2F%2Ftracker.coppersurfer.tk%3A6969&amp;tr=udp%3A%2F%2Fexodus.desync.com%3A6969","seeders":0,"leechers":6,"uploader":"RadioResearch","files":3,"time":1359916258,"description":"*******************************************************************************\n                              My Pure Joy (2011)\n*******************************************************************************\n\n-------------------------------------------------------------------------------\n                              General Information\n-------------------------------------------------------------------------------\nType.................: Movie\n\n\n\nVideo Format.........: AVI\nVideo Bitrate........: 2196\nResolution...........: 720 x 404\nColor................: 8 bit\nFPS..................: 29.97\nSource...............: DVD 16x9\nOriginal Format......: NTSC\nGenre................: Horror\nIMDb Rating..........: 4.9\nMovie Information....: http://www.imdb.com/title/tt1909807\n\n-------------------------------------------------------------------------------\n                               Post Information\n-------------------------------------------------------------------------------\nPosted by............: RadioResearch\nPosted on............: 2/3/2013\n\n-------------------------------------------------------------------------------\n                                 Release Notes\n-------------------------------------------------------------------------------\nOn the outside Adam appears to be a normal teenager, but underneath...his mind \nhas been so rotted by trauma from his past and the gory films he watches, that \nhe has blurred the lines between reality and pretend! This prompts Adam to start \nkilling people in similar ways to films he watches, making sure to put his own \nlittle spin on it. \n\nEnjoy!\n\nRadioResearch\n\n1.  Please vote on IMDB and rate the movies I post.\n2.  Please seed as much as you can; don't leech and run.\n3.  A thank you now and then would be greatly appreciated.\n\nGeneral\nComplete name                            : G:AVIMy Pure Joy \n(2011)MY_PURE_JOY_Title1.avi\nFormat                                   : AVI\nFormat/Info                              : Audio Video Interleave\nFormat profile                           : OpenDML\nFile size                                : 1.59 GiB\nDuration                                 : 1h 43mn\nOverall bit rate                         : 2 196 Kbps\nMovie name                               : MY_PURE_JOY\nDirector                                 : James_Cullen_Bressack\nGenre                                    : Horror\nWriting application                      : MEncoder 5.0\nWriting library                          : [= DigiArty videodll! =]\n\nVideo\nID                                       : 0\nFormat                                   : MPEG-4 Visual\nFormat profile                           : Simple@L1\nFormat settings, BVOP                    : No\nFormat settings, QPel                    : No\nFormat settings, GMC                     : No warppoints\nFormat settings, Matrix                  : Default (H.263)\nCodec ID                                 : DX50\nCodec ID/Hint                            : DivX 5\nDuration                                 : 1h 43mn\nBit rate                                 : 1 998 Kbps\nWidth                                    : 720 pixels\nHeight                                   : 404 pixels\nDisplay aspect ratio                     : 16:9\nFrame rate                               : 29.970 fps\nColor space                              : YUV\nChroma subsampling                       : 4:2:0\nBit depth                                : 8 bits\nScan type                                : Progressive\nCompression mode                         : Lossy\nBits/(Pixel*Frame)                       : 0.229\nStream size                              : 1.45 GiB (91%)\nWriting library                          : Lavc54.71.100\n\nAudio\nID                                       : 1\nFormat                                   : AC-3\nFormat/Info                              : Audio Coding 3\nMode extension                           : CM (complete main)\nFormat settings, Endianness              : Big\nCodec ID                                 : 2000\nDuration                                 : 1h 43mn\nBit rate mode                            : Constant\nBit rate                                 : 192 Kbps\nChannel(s)                               : 2 channels\nChannel positions                        : Front: L R\nSampling rate                            : 48.0 KHz\nBit depth                                : 16 bits\nCompression mode                         : Lossy\nStream size                              : 142 MiB (9%)\nAlignment                                : Split accross interleaves\nInterleave, duration                     : 500 ms (14.98 video frames)\nInterleave, preload duration             : 500 ms\n\n\n\n-------------------------------------------------------------------------------\nGenerated with Cool NFO Creator - http://fly.to/coolbeans\n-------------------------------------------------------------------------------\n","torrent":{"xt":"urn:btih:c293c46bfe7f371a5613892031668e35a4fda523","amp;dn":"My+Pure+Joy+%282011%29","amp;tr":["udp%3A%2F%2Ftracker.openbittorrent.com%3A80","udp%3A%2F%2Fopen.demonii.com%3A1337","udp%3A%2F%2Ftracker.coppersurfer.tk%3A6969","udp%3A%2F%2Fexodus.desync.com%3A6969"],"infoHash":"c293c46bfe7f371a5613892031668e35a4fda523","infoHashBuffer":{"type":"Buffer","data":[194,147,196,107,254,127,55,26,86,19,137,32,49,102,142,53,164,253,165,35]},"announce":[],"urlList":[]}}